# Blender v2.92.0 OBJ File: 'janelaAberta.blend'
# www.blender.org
mtllib janelaAberta.mtl
o Cubo
v 5.217552 2.500055 18.964813
v 5.217552 38.558670 18.964813
v 3.313446 0.624847 8.367950
v 3.313446 40.433876 8.367950
v 69.995110 2.500055 18.964813
v 69.995110 38.558670 18.964813
v 71.899216 0.624847 8.367950
v 71.899216 40.433876 8.367950
v 3.313446 0.624847 18.964813
v 3.313446 40.433876 18.964813
v 71.899216 40.433876 18.964813
v 71.899216 0.624847 18.964813
vt 0.375000 0.000000
vt 0.625000 0.000000
vt 0.625000 0.250000
vt 0.375000 0.250000
vt 0.375000 0.500000
vt 0.625000 0.500000
vt 0.625000 0.750000
vt 0.375000 0.750000
vt 0.125000 0.500000
vt 0.125000 0.750000
vt 0.875000 0.500000
vt 0.875000 0.750000
vt 0.386776 0.993059
vt 0.613224 0.993059
vt 0.625000 1.000000
vt 0.375000 1.000000
vt 0.613224 0.756941
vt 0.386776 0.756941
vn -1.0000 0.0000 0.0000
vn 1.0000 0.0000 0.0000
vn 0.0000 -1.0000 0.0000
vn 0.0000 1.0000 0.0000
vn -0.0000 0.0000 1.0000
usemtl None
s off
f 9/1/1 10/2/1 4/3/1 3/4/1
f 7/5/2 8/6/2 11/7/2 12/8/2
f 3/9/3 7/5/3 12/8/3 9/10/3
f 8/6/4 4/11/4 10/12/4 11/7/4
f 1/13/5 2/14/5 10/15/5 9/16/5
f 6/17/5 5/18/5 12/8/5 11/7/5
f 5/18/5 1/13/5 9/16/5 12/8/5
f 2/14/5 6/17/5 11/7/5 10/15/5
o Cubo.001
v 3.481064 0.640043 -13.993233
v 3.611163 40.119461 -14.000931
v 13.896582 0.605680 -14.205456
v 14.026680 40.085098 -14.213154
v 4.148073 0.644228 18.741505
v 4.278171 40.123650 18.733807
v 14.563591 0.609865 18.529282
v 14.693689 40.089287 18.521584
vt 0.375000 0.000000
vt 0.625000 0.000000
vt 0.625000 0.250000
vt 0.375000 0.250000
vt 0.625000 0.500000
vt 0.375000 0.500000
vt 0.625000 0.750000
vt 0.375000 0.750000
vt 0.625000 1.000000
vt 0.375000 1.000000
vt 0.125000 0.500000
vt 0.125000 0.750000
vt 0.875000 0.500000
vt 0.875000 0.750000
vn -0.0204 -0.0001 -0.9998
vn 0.9998 -0.0033 -0.0204
vn 0.0204 0.0001 0.9998
vn -0.9998 0.0033 0.0204
vn -0.0033 -1.0000 0.0002
vn 0.0033 1.0000 -0.0002
usemtl None
s off
f 13/19/6 14/20/6 16/21/6 15/22/6
f 15/22/7 16/21/7 20/23/7 19/24/7
f 19/24/8 20/23/8 18/25/8 17/26/8
f 17/26/9 18/25/9 14/27/9 13/28/9
f 15/29/10 19/24/10 17/26/10 13/30/10
f 20/23/11 16/31/11 14/32/11 18/25/11
o Cubo.002_Cubo.003
v 58.680462 0.640043 -13.993233
v 58.810558 40.119461 -14.000931
v 69.095978 0.605680 -14.205456
v 69.226074 40.085098 -14.213154
v 59.347469 0.644228 18.741505
v 59.477570 40.123650 18.733807
v 69.762985 0.609865 18.529282
v 69.893089 40.089287 18.521584
vt 0.375000 0.000000
vt 0.625000 0.000000
vt 0.625000 0.250000
vt 0.375000 0.250000
vt 0.625000 0.500000
vt 0.375000 0.500000
vt 0.625000 0.750000
vt 0.375000 0.750000
vt 0.625000 1.000000
vt 0.375000 1.000000
vt 0.125000 0.500000
vt 0.125000 0.750000
vt 0.875000 0.500000
vt 0.875000 0.750000
vn -0.0204 -0.0001 -0.9998
vn 0.9998 -0.0033 -0.0204
vn 0.0204 0.0001 0.9998
vn -0.9998 0.0033 0.0204
vn -0.0033 -1.0000 0.0002
vn 0.0033 1.0000 -0.0002
usemtl None
s off
f 21/33/12 22/34/12 24/35/12 23/36/12
f 23/36/13 24/35/13 28/37/13 27/38/13
f 27/38/14 28/37/14 26/39/14 25/40/14
f 25/40/15 26/39/15 22/41/15 21/42/15
f 23/43/16 27/38/16 25/40/16 21/44/16
f 28/37/17 24/45/17 22/46/17 26/39/17
