# Blender v2.92.0 OBJ File: 'lixeira.blend'
# www.blender.org
mtllib lixeira.mtl
o Cubo
v 0.732084 0.000000 3.775547
v 0.732084 3.965234 3.775547
v 0.732084 0.000000 1.289116
v 0.732084 3.965234 1.289116
v 3.614279 0.000000 3.775547
v 3.614279 3.965234 3.775547
v 3.614279 0.000000 1.289116
v 3.614279 3.965234 1.289116
v 0.732084 0.780761 3.775547
v 0.732084 0.780761 1.289116
v 3.614279 0.780761 1.289116
v 3.614279 0.780761 3.775547
vt 0.375000 0.000000
vt 0.625000 0.000000
vt 0.625000 0.250000
vt 0.375000 0.250000
vt 0.625000 0.500000
vt 0.375000 0.500000
vt 0.625000 0.750000
vt 0.375000 0.750000
vt 0.625000 1.000000
vt 0.375000 1.000000
vt 0.125000 0.500000
vt 0.125000 0.750000
vt 0.625000 0.000000
vt 0.625000 0.250000
vt 0.625000 0.500000
vt 0.875000 0.500000
vt 0.875000 0.750000
vt 0.625000 0.750000
vt 0.625000 1.000000
vn -1.0000 0.0000 0.0000
vn 0.0000 0.0000 -1.0000
vn 1.0000 0.0000 0.0000
vn 0.0000 0.0000 1.0000
vn 0.0000 -1.0000 0.0000
vn 0.0000 1.0000 0.0000
usemtl None
s off
f 1/1/1 2/2/1 4/3/1 3/4/1
f 3/4/2 4/3/2 8/5/2 7/6/2
f 7/6/3 8/5/3 6/7/3 5/8/3
f 5/8/4 6/7/4 2/9/4 1/10/4
f 3/11/5 7/6/5 5/8/5 1/12/5
f 4/3/3 2/2/3 9/13/3 10/14/3
f 11/15/6 10/16/6 9/17/6 12/18/6
f 2/9/2 6/7/2 12/18/2 9/19/2
f 8/5/4 4/3/4 10/14/4 11/15/4
f 6/7/1 8/5/1 11/15/1 12/18/1
